<svg width="128" height="128" viewBox="0 0 128 128" xmlns="http://www.w3.org/2000/svg">
  <defs>
    <linearGradient id="gradient" x1="0%" y1="0%" x2="100%" y2="100%">
      <stop offset="0%" style="stop-color:#4F46E5;stop-opacity:1" />
      <stop offset="100%" style="stop-color:#7C3AED;stop-opacity:1" />
    </linearGradient>
  </defs>

  <!-- Background circle -->
  <circle cx="64" cy="64" r="56" fill="url(#gradient)" stroke="#FFFFFF" stroke-width="4"/>

  <!-- Bookmark icon -->
  <path d="M45 35 C45 30, 50 25, 55 25 L75 25 C80 25, 85 30, 85 35 L85 85 C85 90, 80 85, 75 80 L65 70 L55 80 C50 85, 45 90, 45 85 Z" fill="#FFFFFF"/>

  <!-- Star decoration -->
  <path d="M65 45 L67 51 L73 51 L68 55 L70 61 L65 57 L60 61 L62 55 L57 51 L63 51 Z" fill="#FFC107"/>
</svg>